<svg xmlns="http://www.w3.org/2000/svg" version="1.1" xmlns:xlink="http://www.w3.org/1999/xlink" xmlns:svgjs="http://svgjs.dev/svgjs" width="1000" height="1000"><g clip-path="url(#SvgjsClipPath1274)"><rect width="1000" height="1000" fill="#0f55dc"></rect><g transform="matrix(1.953125,0,0,1.953125,0,0)"><svg xmlns="http://www.w3.org/2000/svg" version="1.1" xmlns:xlink="http://www.w3.org/1999/xlink" xmlns:svgjs="http://svgjs.dev/svgjs" width="512" height="512"><svg width="512" height="512" viewBox="0 0 512 512" fill="none" xmlns="http://www.w3.org/2000/svg">
<rect width="512" height="512" fill="#0F55DC"></rect>
<path d="M462.578 296.64C461.928 296.207 461.062 295.774 460.196 295.341H356.69V293.392C355.824 293.392 354.741 293.392 353.875 293.176C346.296 292.743 339.367 294.042 333.736 299.455C327.24 305.735 319.878 311.365 313.815 318.078C294.759 339.299 272.672 357.488 252.967 377.843C247.12 383.906 243.439 383.906 237.16 378.06C211.608 353.374 186.489 328.688 160.721 304.219C153.575 297.507 147.512 289.278 140.15 283.215C133.22 277.801 126.941 271.738 120.661 265.675C112.432 257.663 112.866 253.766 121.094 245.97C134.086 233.844 147.512 221.934 160.071 209.158C184.973 183.606 210.958 158.921 236.51 134.019C244.522 126.007 244.955 126.223 252.967 134.235C263.361 144.413 273.755 154.807 284.365 164.984C300.173 180.142 315.764 195.3 331.571 210.457C338.5 216.954 345.43 223.883 356.04 223.233C361.67 222.8 367.3 222.584 372.93 222.367V219.552H461.928C462.578 219.336 463.227 219.119 463.877 218.686C469.724 215.871 471.023 211.757 467.558 206.127C464.743 201.796 461.495 197.898 457.814 194.217C445.038 181.658 432.262 169.315 419.27 156.972C393.502 132.503 367.733 108.467 342.182 83.7815C326.374 68.4071 308.401 59.3124 286.098 61.2613C274.188 62.344 262.278 64.726 252.75 73.171C245.821 79.2341 242.573 79.8838 235.644 73.8206C229.148 68.1906 221.785 65.5921 213.99 63.8598C195.151 59.3124 176.961 59.9621 160.937 72.7379C155.524 77.0687 150.11 81.3995 144.913 86.1634C120.444 109.333 97.2746 134.668 71.5064 157.405C65.8763 162.386 60.4628 168.016 55.9155 174.295C45.305 188.587 40.3246 204.394 44.4388 222.584C46.6042 232.545 50.502 241.206 56.7816 249.002C62.6282 256.364 62.1951 258.313 56.3486 265.242C54.3997 267.408 51.8012 269.356 50.7185 271.955C40.3246 295.991 38.5923 317.212 57.6478 340.598C65.0102 349.693 73.4552 357.705 81.9003 365.717C103.987 386.505 125.425 407.726 147.512 428.73C154.874 435.659 162.67 442.589 172.414 446.053C196.017 454.498 218.321 452.549 238.675 436.958C243.656 433.061 248.42 432.844 252.317 437.175C258.814 444.537 267.908 446.703 276.57 448.652C286.747 450.817 297.141 452.116 307.968 449.518C320.961 446.27 331.138 438.907 340.449 430.029C354.091 416.82 367.733 403.828 381.375 390.619C403.679 369.181 425.983 347.744 448.286 326.09C454.133 320.46 459.546 314.613 464.743 308.334C468.858 303.353 467.991 299.889 462.578 296.64ZM278.302 96.3408C288.913 90.7108 302.988 92.6596 312.949 101.754C329.839 117.345 346.296 133.369 362.969 148.96C371.848 157.405 380.942 166.067 389.82 174.512C390.253 174.945 391.12 175.378 391.553 175.811C394.584 179.276 400.431 182.307 398.265 187.071C396.317 191.835 390.47 188.803 388.305 189.237C383.324 189.237 380.293 188.803 377.478 189.237C365.351 191.835 355.824 187.937 346.945 179.059C323.559 156.106 299.523 133.586 275.92 110.849C268.125 103.703 268.558 101.321 278.302 96.3408ZM86.0146 189.67C96.4085 178.843 107.452 168.882 118.062 158.488C126.941 149.826 135.169 140.515 144.697 132.503C156.39 122.542 166.567 111.066 177.828 100.888C188.655 91.1438 199.915 92.8762 211.608 96.5574C218.537 98.7228 219.403 104.569 213.99 110.199C206.844 117.345 199.482 124.491 192.119 131.637C182.158 141.165 171.764 150.259 162.67 160.437C150.977 173.429 136.685 183.606 124.992 196.815C116.547 206.343 107.452 215.221 98.1408 224.1C94.6762 227.348 91.2115 232.978 85.5815 231.029C79.9514 229.08 79.0853 222.584 77.3529 217.387C76.7033 215.005 76.9199 212.406 76.7033 209.808C76.2702 201.363 80.8176 195.083 86.0146 189.67ZM214.856 413.139C210.309 416.171 205.112 417.903 199.698 418.553C187.788 418.769 178.91 412.706 170.682 405.127C158.339 393.434 145.78 381.524 133.653 369.614C117.846 354.457 102.039 339.299 86.6642 323.925C75.8372 313.098 73.8883 301.837 79.5183 289.062C83.1995 280.833 86.6642 279.75 93.1604 285.813C105.72 297.29 118.062 309.416 130.405 321.109C145.563 335.618 160.721 350.342 175.879 364.851C188.005 376.544 200.131 388.02 212.257 399.497C213.773 401.013 215.072 402.745 216.372 404.694C219.187 408.159 218.104 411.19 214.856 413.139ZM391.12 334.968C385.273 341.031 379.21 346.878 373.147 352.508C357.989 366.366 343.481 380.658 329.189 395.166C324.425 400.147 319.661 405.127 314.248 409.458C304.937 417.037 294.543 420.285 282.633 416.82C279.818 415.954 277.219 414.871 274.838 412.923C270.29 409.025 270.29 406.643 274.838 402.312C282.85 394.517 291.295 386.938 299.307 378.926C311.866 366.799 324.642 354.673 336.768 342.114C347.162 331.287 357.772 322.409 373.147 326.74C378.777 325.657 383.541 325.44 388.305 326.306C394.584 327.606 395.667 330.204 391.12 334.968Z" fill="white"></path>
<path d="M362.32 189.02H419.053L375.529 208.075L346.079 194.867L362.32 189.02Z" fill="white"></path>
<path d="M359.288 325.657L414.073 331.287L421.219 299.455L375.529 306.601L359.288 325.657Z" fill="white"></path>
<path d="M348.028 293.176L460.196 295.341L443.522 310.716L348.028 315.263V293.176Z" fill="white"></path>
<path d="M460.629 220.635C461.279 220.202 461.928 219.985 462.578 219.552L468.424 215.005L440.491 204.611H367.95L353.225 223.017L457.814 221.284C458.68 221.068 459.546 220.851 460.629 220.635Z" fill="white"></path>
</svg></svg></g></g><defs><clipPath id="SvgjsClipPath1274"><rect width="1000" height="1000" x="0" y="0" rx="150" ry="150"></rect></clipPath></defs></svg>