<?xml version="1.0" encoding="utf-8"?>
<!-- Generator: Adobe Illustrator 24.3.0, SVG Export Plug-In . SVG Version: 6.00 Build 0)  -->
<svg version="1.1" id="Layer_1" xmlns="http://www.w3.org/2000/svg" xmlns:xlink="http://www.w3.org/1999/xlink" x="0px" y="0px"
	 viewBox="0 0 1000 188" style="enable-background:new 0 0 1000 188;" xml:space="preserve">
<style type="text/css">
	.st0{fill:#FFFFFF;}
</style>
<g>
	<g>
		<g>
			<path class="st0" d="M297.8,55.1c2.1-1.8,3.2-3.1,3.5-3.7c0.4-0.9,0.9-1.4,1.6-1.4c0.8,0,1.2,0.7,1.2,2l1.2,19.6
				c0,1.1,0,1.8-0.1,2.1c-0.1,0.2-0.4,0.4-0.8,0.4c-0.6,0-1.2-0.8-1.9-2.4c-2.5-6-5.9-10.9-10.4-14.7c-4.5-3.8-9.3-5.7-14.5-5.7
				c-4.6,0-8.8,1.5-12.6,4.4c-3.8,2.9-6.8,7.1-8.9,12.6c-2.1,5.5-3.2,11.3-3.2,17.6c0,10.7,2.9,19.3,8.8,26s12.4,10,19.7,10
				c4.9,0,9.4-1.6,13.6-4.7c4.1-3.1,7.2-6.7,9.3-10.8c0.6-1.1,1.1-1.7,1.7-1.7c0.8,0,1.2,0.4,1.2,1.3c0,1.1-1.4,3.5-4.3,7.1
				c-2.9,3.7-6.6,6.7-11.2,8.9c-4.6,2.3-9.6,3.4-14.9,3.4c-6.3,0-12.2-1.6-17.9-4.8c-5.6-3.2-10.1-7.6-13.4-13.2
				c-3.3-5.6-5-12.2-5-19.8c0-7.4,1.6-14.1,4.8-20.1c3.2-6,7.7-10.6,13.5-13.9c5.8-3.3,11.8-4.9,18-4.9c3.3,0,6.7,0.5,10.1,1.5
				C290.7,51.4,294.2,53,297.8,55.1z"/>
			<path class="st0" d="M314.6,86.8c0-5.1,1.5-10.6,4.6-16.7c3.1-6.1,7.6-11.1,13.5-15s12.6-5.9,20-5.9c10.4,0,19,3.7,25.7,11.1
				c6.8,7.4,10.2,15.9,10.2,25.4c0,10.1-3.8,19.2-11.2,27.3c-7.5,8-16.5,12.1-27.1,12.1c-10.1,0-18.6-3.5-25.4-10.6
				C318,107.5,314.6,98.2,314.6,86.8z M327.2,84.9c0,6.1,0.9,12.4,2.8,18.8s4.8,11.1,8.8,14c4,2.9,8.3,4.4,12.9,4.4
				c7.4,0,13.3-3.6,17.7-10.8c4.4-7.2,6.7-15.5,6.7-25c0-9.2-2.3-17.2-6.8-24.1c-4.5-6.9-10.5-10.4-17.8-10.4
				c-5.5,0-10.1,1.8-13.8,5.5c-3.7,3.7-6.3,8.1-8,13.3C328,75.8,327.2,80.6,327.2,84.9z"/>
			<path class="st0" d="M478.1,50.4c3.8,8.2,7.3,15.5,10.6,21.8c3.9,7.5,7,13.8,9.2,18.8c2.2,5,4.8,9.9,7.7,14.8
				c7.8-12.9,16.8-31.3,27-55.4l22.4,0.1c0.8,0.1,1.2,0.5,1.2,1c0,0.6-0.4,0.9-1.3,1c-4,0.3-6.6,1.1-8,2.4c-1.3,1.3-2.2,3.4-2.5,6.3
				c-0.3,3-0.6,8.5-0.9,16.5c-0.3,8.1-0.4,14.8-0.4,20.1c0,10.3,0.1,16.3,0.2,18c0.2,1.7,0.8,3.1,1.9,4.1s3.3,1.7,6.6,2.2
				c0.9,0.2,1.4,0.5,1.4,1.1s-0.6,0.8-1.7,0.8l-21.9-0.1h-5.7c-1.3,0-1.9-0.3-1.9-0.9c0-0.5,0.4-0.8,1.3-1c3.2-0.4,5.2-1,6.3-1.7
				c1-0.8,1.8-2.1,2.3-4c0.5-1.9,0.8-6.7,0.8-14.4l1.1-27l0.6-13.3c0-1-0.1-1.5-0.4-1.5c-0.5,0-0.8,0.3-1.1,0.9l-11.1,22
				c-7.1,14.1-11.5,23.1-13.1,27l-3.5,8.5c-1.1,2.6-1.7,4-2,4.2s-0.5,0.4-0.8,0.4c-0.5,0-0.8-0.5-1.1-1.5
				c-0.7-2.3-4.1-9.7-10.4-22.2c-3.3-7-7.2-15-11.7-24c-4.6-9-7-13.7-7.4-14.1c-0.4-0.4-0.7-0.6-0.8-0.6c-0.4,0-0.6,0.5-0.6,1.4
				l-0.6,34.1l-0.2,11.2c0,6,0.8,9.9,2.4,11.7s4,2.8,7,2.8c1.9,0,2.9,0.4,2.9,1.2c0,0.6-0.5,0.9-1.4,0.9l-1.2-0.1l-3.7,0.1l-7.9-0.1
				c-3.5,0-7.9,0.2-13.3,0.6c-0.5-0.3-0.7-0.6-0.7-0.9c0-0.7,0.7-1.1,2-1.2c3.7-0.1,6.5-1.4,8.3-3.7c1.8-2.4,2.6-7.7,2.6-15.9
				l-0.1-9.9l0.8-25.1c0-5.9-0.9-9.9-2.6-12c-1.7-2.2-4.3-3.4-7.6-3.9c-1.4-0.2-2.1-0.6-2.1-1.2c0-0.7,0.5-1,1.6-1
				c0.6,0,1.2,0,2,0.1L478.1,50.4z"/>
			<path class="st0" d="M565.8,49.9l10.3,0.2l15.7-0.2c1.9,0,2.8,0.4,2.8,1.1c0,0.6-0.5,0.9-1.5,1.1c-4.2,0.5-6.8,2-7.8,4.5
				c-1,2.5-1.5,11.6-1.5,27.5c0,5.8,0.1,12.4,0.5,19.6c0.3,7.3,0.6,11.6,1,13c0.4,1.4,1.1,2.6,2.1,3.5c1,0.9,3,1.5,5.9,1.9
				c0.9,0.1,1.4,0.5,1.4,1.1c0,0.7-0.4,1-1.3,1l-14-0.1l-11.9,0.2c-1.3,0-2-0.4-2-1.1c0-0.8,0.5-1.2,1.6-1.2
				c3.5-0.1,5.5-1.2,6.1-3.5c0.6-2.2,0.9-9.4,0.9-21.5c0-11.7-0.1-21.2-0.3-28.4c-0.2-7.2-0.8-11.7-1.8-13.3c-1-1.6-2.9-2.6-5.7-3
				c-1.1-0.2-1.6-0.6-1.6-1.3C564.6,50.2,565,49.9,565.8,49.9z"/>
			<path class="st0" d="M663.9,55.1c2.1-1.8,3.2-3.1,3.5-3.7c0.4-0.9,0.9-1.4,1.6-1.4c0.7,0,1.2,0.7,1.2,2l1.2,19.6
				c0,1.1,0,1.8-0.1,2.1c-0.1,0.2-0.4,0.4-0.8,0.4c-0.6,0-1.2-0.8-1.9-2.4c-2.5-6-5.9-10.9-10.3-14.7c-4.5-3.8-9.3-5.7-14.5-5.7
				c-4.6,0-8.8,1.5-12.6,4.4c-3.8,2.9-6.8,7.1-8.9,12.6c-2.1,5.5-3.2,11.3-3.2,17.6c0,10.7,2.9,19.3,8.8,26s12.4,10,19.7,10
				c4.9,0,9.4-1.6,13.6-4.7c4.1-3.1,7.2-6.7,9.3-10.8c0.6-1.1,1.1-1.7,1.7-1.7c0.8,0,1.2,0.4,1.2,1.3c0,1.1-1.4,3.5-4.3,7.1
				c-2.9,3.7-6.6,6.7-11.2,8.9c-4.6,2.3-9.6,3.4-14.9,3.4c-6.3,0-12.2-1.6-17.9-4.8c-5.6-3.2-10.1-7.6-13.4-13.2s-5-12.2-5-19.8
				c0-7.4,1.6-14.1,4.8-20.1c3.2-6,7.7-10.6,13.5-13.9c5.8-3.3,11.8-4.9,18-4.9c3.3,0,6.7,0.5,10.1,1.5
				C656.7,51.4,660.3,53,663.9,55.1z"/>
			<path class="st0" d="M712.2,49.9l10.3,0.2l15.7-0.2c1.9,0,2.8,0.4,2.8,1.1c0,0.6-0.5,0.9-1.5,1.1c-4.2,0.5-6.8,2-7.8,4.5
				c-1,2.5-1.5,11.6-1.5,27.5c0,5.8,0.1,12.4,0.5,19.6c0.3,7.3,0.6,11.6,1,13c0.4,1.4,1.1,2.6,2.1,3.5c1,0.9,3,1.5,5.9,1.9
				c0.9,0.1,1.4,0.5,1.4,1.1c0,0.7-0.4,1-1.3,1l-14-0.1l-11.9,0.2c-1.3,0-2-0.4-2-1.1c0-0.8,0.5-1.2,1.6-1.2
				c3.5-0.1,5.5-1.2,6.1-3.5c0.6-2.2,0.9-9.4,0.9-21.5c0-11.7-0.1-21.2-0.3-28.4c-0.2-7.2-0.8-11.7-1.8-13.3c-1-1.6-2.9-2.6-5.7-3
				c-1.1-0.2-1.6-0.6-1.6-1.3C711.1,50.2,711.5,49.9,712.2,49.9z"/>
			<path class="st0" d="M768.3,50.8c2.2,3,6.2,7.7,11.7,14.1l18,20.9l17.3,20c0.4-6.8,0.6-15.6,0.6-26.4c0-8.1-0.2-13.6-0.5-16.3
				c-0.3-2.8-1.6-5.1-3.7-6.9c-2.2-1.9-4.8-2.8-8.1-2.8c-1.5,0-2.2-0.3-2.2-1c0-0.4,0.2-0.6,0.5-0.8c0.3-0.2,2.8-0.3,7.6-0.5
				c4.7-0.2,8.7-0.3,11.9-0.3l7.6,0.1h1.2c1.2,0,1.7,0.3,1.7,1c0,0.6-0.5,0.9-1.5,1c-3.8,0.4-6.5,1.4-8.2,3c-1.7,1.6-2.7,3.8-3,6.7
				c-0.3,2.9-0.5,12.8-0.5,29.6l-0.6,29.7c0,1.5-0.4,2.3-1.1,2.3c-0.2,0-0.5-0.1-0.8-0.3s-2-2.1-5-5.7c-3-3.6-6.8-8-11.2-13
				c-4.4-5.1-7.9-9.2-10.5-12.3c-5.6-6.8-9.1-11-10.6-12.5c-5.4-5.8-8.6-9.5-9.6-11.1c-0.6-1.1-1.2-1.7-1.7-1.7
				c-0.4,0-0.6,0.7-0.6,2.2l0.1,8.7c0,11.1,0.3,19.9,0.9,26.5c0.6,6.6,1.2,10.5,1.9,11.6c0.7,1.1,1.8,2.3,3.4,3.5
				c1.6,1.2,3.4,1.7,5.2,1.7c2.5,0,3.7,0.5,3.7,1.4c0,0.7-0.7,1-2.1,1L753,124c-1.3,0-1.9-0.3-1.9-1c0-0.8,0.6-1.1,1.9-1.1
				c4.6,0,7.7-1,9.2-3.1c1.5-2,2.3-6.4,2.3-13L764,86c0-11.7-0.3-18.5-0.9-20.6s-2.1-4.6-4.3-7.6c-2.2-3-4.8-4.7-7.6-5
				c-1.3-0.1-1.9-0.5-1.9-1c0-0.7,0.8-1.1,2.5-1.1L768.3,50.8z"/>
			<path class="st0" d="M859.5,86.6l-0.2,13.9c0,9.7,0.1,15.1,0.5,16.3c0.3,1.1,0.9,2.3,1.9,3.5c1,1.2,3.1,1.9,6.2,2.1
				c1.7,0.1,2.5,0.5,2.5,1.2c0,0.8-0.6,1.2-1.8,1.2c-0.5,0-1.6-0.1-3.5-0.3c-3.9-0.4-7.4-0.6-10.4-0.6c-2.5,0-6.1,0.1-10.6,0.4
				l-3.2,0.2c-1.2,0-1.8-0.4-1.8-1.1s0.9-1.1,2.6-1.1c2.4,0,4.1-0.7,5.2-2c1-1.3,1.7-4.8,2.1-10.3c0.3-5.5,0.5-12.8,0.5-21.9
				c0-8.5-0.2-15.3-0.5-20.2c-0.3-4.9-0.7-8.2-1.3-9.7c-0.5-1.5-1.4-2.6-2.4-3.3c-1.1-0.7-3.1-1.1-6.2-1.3c-1.2-0.1-1.8-0.4-1.8-1.1
				c0-0.6,0.5-0.9,1.6-1c9.4-0.7,27.1-1.1,53.2-1.1c4.5,0,6.9,0.1,7.3,0.2c0.4,0.1,0.7,0.4,0.8,0.7c0.2,0.4,0.7,3,1.5,7.8
				s1.3,7.4,1.3,7.6c0,0.8-0.3,1.2-1,1.2c-0.5,0-0.9-0.4-1.4-1.1c-5.3-9.2-13.9-13.8-25.8-13.8c-4.1,0-7.4,0.2-9.9,0.5
				c-2.5,0.4-4,0.8-4.4,1.3c-0.4,0.5-0.7,2.9-0.8,7.1c-0.1,4.2-0.2,11.5-0.2,22c3,0.2,5,0.2,6.1,0.2c5.4,0,9.2-1.2,11.3-3.5
				s3.2-4.7,3.3-7.2c0.1-1.6,0.5-2.5,1.3-2.5c0.8,0,1.2,0.6,1.2,1.7c0,0.4,0,0.8-0.1,1.4c-0.3,2.2-0.4,7.7-0.4,16.7v6.5
				c0,1.6-0.5,2.4-1.4,2.4c-0.8,0-1.2-0.6-1.2-1.7c-0.1-3.4-1.2-6.1-3.2-8.3c-2-2.2-6-3.2-12-3.2C863.5,86.4,861.8,86.5,859.5,86.6z
				"/>
			<path class="st0" d="M911,86.8c0-5.1,1.5-10.6,4.6-16.7c3.1-6.1,7.6-11.1,13.5-15s12.6-5.9,20-5.9c10.4,0,19,3.7,25.7,11.1
				c6.8,7.4,10.2,15.9,10.2,25.4c0,10.1-3.8,19.2-11.2,27.3c-7.5,8-16.5,12.1-27.1,12.1c-10.1,0-18.6-3.5-25.4-10.6
				C914.5,107.5,911,98.2,911,86.8z M923.6,84.9c0,6.1,0.9,12.4,2.8,18.8s4.8,11.1,8.8,14c4,2.9,8.3,4.4,12.9,4.4
				c7.4,0,13.3-3.6,17.7-10.8c4.4-7.2,6.7-15.5,6.7-25c0-9.2-2.3-17.2-6.8-24.1c-4.5-6.9-10.5-10.4-17.8-10.4
				c-5.5,0-10.1,1.8-13.8,5.5c-3.7,3.7-6.3,8.1-8,13.3C924.4,75.8,923.6,80.6,923.6,84.9z"/>
		</g>
		<g>
			<path class="st0" d="M434.9,55.9c1-1,1.7-2.1,2-3.1c0.3-0.9,0.7-1.4,1.3-1.4c0.3,0,0.6,0.2,1,0.6c0.3,1.4,0.6,4.1,1.1,8.2
				l1.4,10.6c0,0.7-0.4,1-1.2,1c-0.5,0-0.8-0.4-1.2-1.1c-2-4.9-4.9-9-8.8-12.3c-3.9-3.2-8.2-4.8-12.8-4.8c-4.5,0-8,1.4-10.3,4.1
				c-2.3,2.7-3.5,5.6-3.5,8.7c0,3.8,1.3,6.6,3.8,8.6c2.5,2,7.7,4.2,15.5,6.8c5.8,1.8,10.1,3.5,13,5.2s5.3,4,7.2,7.1
				c1.9,3,2.9,6.3,2.9,9.8c0,5.9-2.5,11.2-7.4,15.9c-4.9,4.7-10.9,7-18.1,7c-6.4,0-12.9-2-19.3-6c-1.3,1.1-2.1,2.3-2.5,3.7
				c-0.3,1.2-0.8,1.8-1.5,1.8c-0.6,0-1-0.8-1.3-2.3c-0.3-1.5-0.8-8.8-1.6-21.8c0.1-0.5,0.5-0.7,1.2-0.7c0.6,0,1,0.4,1.4,1.2
				c5.8,14.5,13.8,21.8,24.2,21.8c5.1,0,9.2-1.5,12.1-4.6c2.9-3.1,4.4-6.6,4.4-10.7c0-2.8-0.8-5.3-2.3-7.7c-1.6-2.3-3.6-4.2-6.2-5.6
				c-2.6-1.4-6.6-3-12.2-4.8c-7.1-2.3-12-4.5-14.5-6.5c-2.6-2-4.5-4.3-5.7-6.9c-1.2-2.6-1.8-5.1-1.8-7.5c0-5,2.3-9.4,6.8-13.3
				c4.5-3.9,10.1-5.8,16.6-5.8c2.5,0,5.1,0.4,7.8,1.2C429.1,53.1,431.9,54.3,434.9,55.9z"/>
		</g>
	</g>
	<g>
		<path class="st0" d="M208.7,112.8c-0.3-0.2-0.7-0.4-1.1-0.6h-47.8v-0.9c-0.4,0-0.9,0-1.3-0.1c-3.5-0.2-6.7,0.4-9.3,2.9
			c-3,2.9-6.4,5.5-9.2,8.6c-8.8,9.8-19,18.2-28.1,27.6c-2.7,2.8-4.4,2.8-7.3,0.1c-11.8-11.4-23.4-22.8-35.3-34.1
			c-3.3-3.1-6.1-6.9-9.5-9.7c-3.2-2.5-6.1-5.3-9-8.1C47,94.8,47.2,93,51,89.4c6-5.6,12.2-11.1,18-17c11.5-11.8,23.5-23.2,35.3-34.7
			c3.7-3.7,3.9-3.6,7.6,0.1c4.8,4.7,9.6,9.5,14.5,14.2c7.3,7,14.5,14,21.8,21c3.2,3,6.4,6.2,11.3,5.9c2.6-0.2,5.2-0.3,7.8-0.4v-1.3
			h41.1c0.3-0.1,0.6-0.2,0.9-0.4c2.7-1.3,3.3-3.2,1.7-5.8c-1.3-2-2.8-3.8-4.5-5.5c-5.9-5.8-11.8-11.5-17.8-17.2
			c-11.9-11.3-23.8-22.4-35.6-33.8c-7.3-7.1-15.6-11.3-25.9-10.4c-5.5,0.5-11,1.6-15.4,5.5c-3.2,2.8-4.7,3.1-7.9,0.3
			c-3-2.6-6.4-3.8-10-4.6c-8.7-2.1-17.1-1.8-24.5,4.1c-2.5,2-5,4-7.4,6.2C50.7,26.3,40,38,28.1,48.5c-2.6,2.3-5.1,4.9-7.2,7.8
			c-4.9,6.6-7.2,13.9-5.3,22.3c1,4.6,2.8,8.6,5.7,12.2c2.7,3.4,2.5,4.3-0.2,7.5c-0.9,1-2.1,1.9-2.6,3.1c-4.8,11.1-5.6,20.9,3.2,31.7
			c3.4,4.2,7.3,7.9,11.2,11.6c10.2,9.6,20.1,19.4,30.3,29.1c3.4,3.2,7,6.4,11.5,8c10.9,3.9,21.2,3,30.6-4.2c2.3-1.8,4.5-1.9,6.3,0.1
			c3,3.4,7.2,4.4,11.2,5.3c4.7,1,9.5,1.6,14.5,0.4c6-1.5,10.7-4.9,15-9c6.3-6.1,12.6-12.1,18.9-18.2c10.3-9.9,20.6-19.8,30.9-29.8
			c2.7-2.6,5.2-5.3,7.6-8.2C211.6,115.9,211.2,114.3,208.7,112.8z M123.6,20.3c4.9-2.6,11.4-1.7,16,2.5c7.8,7.2,15.4,14.6,23.1,21.8
			c4.1,3.9,8.3,7.9,12.4,11.8c0.2,0.2,0.6,0.4,0.8,0.6c1.4,1.6,4.1,3,3.1,5.2c-0.9,2.2-3.6,0.8-4.6,1c-2.3,0-3.7-0.2-5,0
			c-5.6,1.2-10-0.6-14.1-4.7c-10.8-10.6-21.9-21-32.8-31.5C118.9,23.7,119.1,22.6,123.6,20.3z M34.8,63.4c4.8-5,9.9-9.6,14.8-14.4
			c4.1-4,7.9-8.3,12.3-12c5.4-4.6,10.1-9.9,15.3-14.6c5-4.5,10.2-3.7,15.6-2c3.2,1,3.6,3.7,1.1,6.3c-3.3,3.3-6.7,6.6-10.1,9.9
			c-4.6,4.4-9.4,8.6-13.6,13.3c-5.4,6-12,10.7-17.4,16.8c-3.9,4.4-8.1,8.5-12.4,12.6c-1.6,1.5-3.2,4.1-5.8,3.2
			c-2.6-0.9-3-3.9-3.8-6.3c-0.3-1.1-0.2-2.3-0.3-3.5C30.3,68.8,32.4,65.9,34.8,63.4z M94.3,166.6c-2.1,1.4-4.5,2.2-7,2.5
			c-5.5,0.1-9.6-2.7-13.4-6.2c-5.7-5.4-11.5-10.9-17.1-16.4c-7.3-7-14.6-14-21.7-21.1c-5-5-5.9-10.2-3.3-16.1
			c1.7-3.8,3.3-4.3,6.3-1.5c5.8,5.3,11.5,10.9,17.2,16.3c7,6.7,14,13.5,21,20.2c5.6,5.4,11.2,10.7,16.8,16c0.7,0.7,1.3,1.5,1.9,2.4
			C96.3,164.3,95.8,165.7,94.3,166.6z M175.7,130.5c-2.7,2.8-5.5,5.5-8.3,8.1c-7,6.4-13.7,13-20.3,19.7c-2.2,2.3-4.4,4.6-6.9,6.6
			c-4.3,3.5-9.1,5-14.6,3.4c-1.3-0.4-2.5-0.9-3.6-1.8c-2.1-1.8-2.1-2.9,0-4.9c3.7-3.6,7.6-7.1,11.3-10.8c5.8-5.6,11.7-11.2,17.3-17
			c4.8-5,9.7-9.1,16.8-7.1c2.6-0.5,4.8-0.6,7-0.2C177.3,127.1,177.8,128.3,175.7,130.5z"/>
		<polygon class="st0" points="162.4,63.1 188.6,63.1 168.5,71.9 154.9,65.8 		"/>
		<polygon class="st0" points="161,126.2 186.3,128.8 189.6,114.1 168.5,117.4 		"/>
		<polygon class="st0" points="155.8,111.2 207.6,112.2 199.9,119.3 155.8,121.4 		"/>
		<path class="st0" d="M207.8,77.7c0.3-0.2,0.6-0.3,0.9-0.5l2.7-2.1l-12.9-4.8H165l-6.8,8.5l48.3-0.8
			C206.9,77.9,207.3,77.8,207.8,77.7z"/>
	</g>
</g>
</svg>
